<svg width="99" height="72" viewBox="0 0 99 72" fill="none" xmlns="http://www.w3.org/2000/svg">
<path d="M13.5 46.0125H18.5625L21.15 38.5875H32.85L35.55 46.0125H40.5L29.5875 16.9875H24.4125L13.5 46.0125ZM22.6125 34.425L26.8875 22.3875H27.1125L31.3875 34.425H22.6125ZM58.5 26.55V18.9C60.975 17.85 63.5063 17.0625 66.0938 16.5375C68.6812 16.0125 71.4 15.75 74.25 15.75C76.2 15.75 78.1125 15.9 79.9875 16.2C81.8625 16.5 83.7 16.875 85.5 17.325V24.525C83.7 23.85 81.8813 23.3438 80.0438 23.0063C78.2063 22.6688 76.275 22.5 74.25 22.5C71.4 22.5 68.6625 22.8563 66.0375 23.5688C63.4125 24.2813 60.9 25.275 58.5 26.55ZM58.5 51.3V43.65C60.975 42.6 63.5063 41.8125 66.0938 41.2875C68.6812 40.7625 71.4 40.5 74.25 40.5C76.2 40.5 78.1125 40.65 79.9875 40.95C81.8625 41.25 83.7 41.625 85.5 42.075V49.275C83.7 48.6 81.8813 48.0938 80.0438 47.7563C78.2063 47.4188 76.275 47.25 74.25 47.25C71.4 47.25 68.6625 47.5875 66.0375 48.2625C63.4125 48.9375 60.9 49.95 58.5 51.3ZM58.5 38.925V31.275C60.975 30.225 63.5063 29.4375 66.0938 28.9125C68.6812 28.3875 71.4 28.125 74.25 28.125C76.2 28.125 78.1125 28.275 79.9875 28.575C81.8625 28.875 83.7 29.25 85.5 29.7V36.9C83.7 36.225 81.8813 35.7188 80.0438 35.3813C78.2063 35.0438 76.275 34.875 74.25 34.875C71.4 34.875 68.6625 35.2313 66.0375 35.9438C63.4125 36.6563 60.9 37.65 58.5 38.925ZM24.75 54C28.275 54 31.7062 54.3938 35.0437 55.1813C38.3812 55.9688 41.7 57.15 45 58.725V14.4C41.925 12.6 38.6625 11.25 35.2125 10.35C31.7625 9.45 28.275 9 24.75 9C22.05 9 19.3688 9.2625 16.7063 9.7875C14.0438 10.3125 11.475 11.1 9 12.15V56.7C11.625 55.8 14.2312 55.125 16.8187 54.675C19.4062 54.225 22.05 54 24.75 54ZM54 58.725C57.3 57.15 60.6188 55.9688 63.9563 55.1813C67.2938 54.3938 70.725 54 74.25 54C76.95 54 79.5938 54.225 82.1813 54.675C84.7688 55.125 87.375 55.8 90 56.7V12.15C87.525 11.1 84.9563 10.3125 82.2938 9.7875C79.6313 9.2625 76.95 9 74.25 9C70.725 9 67.2375 9.45 63.7875 10.35C60.3375 11.25 57.075 12.6 54 14.4V58.725ZM49.5 72C45.9 69.15 42 66.9375 37.8 65.3625C33.6 63.7875 29.25 63 24.75 63C21.6 63 18.5063 63.4125 15.4688 64.2375C12.4312 65.0625 9.525 66.225 6.75 67.725C5.175 68.55 3.65625 68.5125 2.19375 67.6125C0.73125 66.7125 0 65.4 0 63.675V9.45C0 8.625 0.20625 7.8375 0.61875 7.0875C1.03125 6.3375 1.65 5.775 2.475 5.4C5.925 3.6 9.525 2.25 13.275 1.35C17.025 0.45 20.85 0 24.75 0C29.1 0 33.3563 0.5625 37.5188 1.6875C41.6813 2.8125 45.675 4.5 49.5 6.75C53.325 4.5 57.3188 2.8125 61.4813 1.6875C65.6438 0.5625 69.9 0 74.25 0C78.15 0 81.975 0.45 85.725 1.35C89.475 2.25 93.075 3.6 96.525 5.4C97.35 5.775 97.9688 6.3375 98.3813 7.0875C98.7938 7.8375 99 8.625 99 9.45V63.675C99 65.4 98.2688 66.7125 96.8063 67.6125C95.3438 68.5125 93.825 68.55 92.25 67.725C89.475 66.225 86.5688 65.0625 83.5312 64.2375C80.4937 63.4125 77.4 63 74.25 63C69.75 63 65.4 63.7875 61.2 65.3625C57 66.9375 53.1 69.15 49.5 72Z" fill="#1A7A5E"/>
</svg>
