<svg width="30" height="31" viewBox="0 0 30 31" fill="none" xmlns="http://www.w3.org/2000/svg">
<path d="M24.9902 3.86914H5.00977C4.6582 3.86914 4.36035 3.99121 4.11621 4.23535C3.87207 4.47949 3.75 4.77734 3.75 5.12891V25.1387C3.75 25.4707 3.87207 25.7588 4.11621 26.0029C4.36035 26.2471 4.6582 26.3691 5.00977 26.3691H15.7617V17.668H12.832V14.2695H15.7617V11.7793C15.7617 10.3145 16.167 9.19629 16.9775 8.4248C17.7881 7.65332 18.8477 7.26758 20.1562 7.26758C20.5859 7.26758 21.0205 7.28223 21.46 7.31152C21.8994 7.34082 22.334 7.375 22.7637 7.41406V10.4316H20.9766C20.2734 10.4316 19.8145 10.5879 19.5996 10.9004C19.3848 11.2129 19.2773 11.6133 19.2773 12.1016V14.2695H22.6465L22.207 17.668H19.2773V26.3691H24.9902C25.3418 26.3691 25.6396 26.2471 25.8838 26.0029C26.1279 25.7588 26.25 25.4707 26.25 25.1387V5.12891C26.25 4.77734 26.1279 4.47949 25.8838 4.23535C25.6396 3.99121 25.3418 3.86914 24.9902 3.86914Z" fill="#111111"/>
</svg>
