<svg width="0" height="0" class="hidden">
  <symbol fill="none" xmlns="http://www.w3.org/2000/svg" viewBox="0 0 24 24" id="medical-file">
    <path d="M19 9V7.81818C19 6.12494 19 5.27832 18.7478 4.60214C18.3424 3.5151 17.4849 2.65765 16.3979 2.2522C15.7217 2 14.8751 2 13.1818 2C10.2186 2 8.73706 2 7.55375 2.44135C5.65142 3.15088 4.15088 4.65142 3.44135 6.55375C3 7.73706 3 9.21865 3 12.1818L3 14.7273C3 17.7966 3 19.3313 3.79783 20.3971C4.02643 20.7025 4.29752 20.9736 4.60289 21.2022C5.66867 22 7.20336 22 10.2727 22H11C12.1698 22 14.5 22 14.5 22" stroke="#212B36" stroke-linecap="round" stroke-linejoin="round"></path>
    <path d="M11 14.3333H11.8403C12.5019 14.3333 12.8326 14.3333 13.0985 14.5076C13.3643 14.6818 13.5122 14.9956 13.8081 15.6232L15.4 19L17.6 12L19.1919 15.3768C19.4878 16.0044 19.6357 16.3182 19.9015 16.4924C20.1674 16.6667 20.4981 16.6667 21.1597 16.6667H22" stroke="#212B36" stroke-linecap="round" stroke-linejoin="round"></path>
    <path d="M3 12C3 10.1591 4.49238 8.66667 6.33333 8.66667H7.44444C7.9611 8.66667 8.21942 8.66667 8.43137 8.60988C9.00652 8.45577 9.45576 8.00652 9.60988 7.43137C9.66667 7.21942 9.66667 6.9611 9.66667 6.44444V5.33333C9.66667 3.49238 11.1591 2 13 2" stroke="#212B36" stroke-linecap="round" stroke-linejoin="round"></path>
  </symbol>
  <symbol fill="none" xmlns="http://www.w3.org/2000/svg" viewBox="0 0 20 20" id="patient-icon">
    <path d="M5.48131 12.9007C4.30234 13.6027 1.21114 15.0361 3.09388 16.8298C4.01359 17.706 5.03791 18.3327 6.32572 18.3327H13.6743C14.9621 18.3327 15.9864 17.706 16.9061 16.8298C18.7889 15.0361 15.6977 13.6027 14.5187 12.9007C11.754 11.2545 8.24599 11.2545 5.48131 12.9007Z" stroke="#212B36" stroke-width="1.5" stroke-linecap="round" stroke-linejoin="round"></path>
    <path d="M13.75 5.41602C13.75 7.48708 12.0711 9.16602 10 9.16602C7.92893 9.16602 6.25 7.48708 6.25 5.41602C6.25 3.34495 7.92893 1.66602 10 1.66602C12.0711 1.66602 13.75 3.34495 13.75 5.41602Z" stroke="#212B36" stroke-width="1.5"></path>
  </symbol>
  <symbol fill="none" xmlns="http://www.w3.org/2000/svg" viewBox="0 0 20 20" id="diagnosis">
    <path d="M16.219 3.32793C13.9843 1.95716 12.0338 2.50957 10.8621 3.38949C10.3817 3.75027 10.1415 3.93066 10.0002 3.93066C9.85883 3.93066 9.61862 3.75027 9.1382 3.38949C7.96651 2.50957 6.01607 1.95716 3.78136 3.32793C0.848551 5.12692 0.184927 11.0618 6.94977 16.0689C8.23826 17.0226 8.8825 17.4995 10.0002 17.4995C11.1178 17.4995 11.7621 17.0226 13.0506 16.0689C19.8154 11.0618 19.1518 5.12692 16.219 3.32793Z" stroke="#212B36" stroke-width="1.5" stroke-linecap="round"></path>
    <path d="M13.3333 10.8333H12.5C12.1206 10.8333 11.7213 10.8627 11.3807 10.6011C11.2509 10.5014 11.1648 10.3636 10.9925 10.088L9.58333 7.5L7.08333 11.6667L5.78615 9.86004C5.57268 9.60389 5.36456 9.34419 5.08205 9.24142C4.87657 9.16667 4.63994 9.16667 4.16667 9.16667H2.5" stroke="#212B36" stroke-width="1.5" stroke-linecap="round" stroke-linejoin="round"></path>
  </symbol>
  <symbol fill="none" xmlns="http://www.w3.org/2000/svg" viewBox="0 0 20 20" id="hand-drop">
    <path d="M10.4165 1.66602C10.4165 1.66602 14.1665 3.74935 14.1665 6.45768C14.1665 8.41369 12.4876 9.99935 10.4165 9.99935C8.34544 9.99935 6.6665 8.41369 6.6665 6.45768C6.6665 3.74935 10.4165 1.66602 10.4165 1.66602Z" stroke="#212B36" stroke-width="1.5"></path>
    <path d="M3.3335 11.666H5.83349L7.91683 12.812H8.75016C10.0002 12.812 10.8335 13.7694 10.8335 14.5825L8.33349 15.4159L5.83349 14.5825M10.8329 14.166L14.3421 12.9963C15.1792 12.7172 16.0888 13.1391 16.4166 13.9585L16.6663 14.5827L9.16626 18.3327L3.3335 16.6826" stroke="#212B36" stroke-width="1.5" stroke-linejoin="round"></path>
  </symbol>
  <symbol fill="none" xmlns="http://www.w3.org/2000/svg" viewBox="0 0 20 20" id="calendar">
    <path d="M15 1.66602V3.33268M5 1.66602V3.33268" stroke="#212B36" stroke-width="1.5" stroke-linecap="round" stroke-linejoin="round"></path>
    <path d="M9.9961 10.834H10.0036M9.9961 14.1673H10.0036M13.3257 10.834H13.3332M6.6665 10.834H6.67398M6.6665 14.1673H6.67398" stroke="#212B36" stroke-width="2" stroke-linecap="round" stroke-linejoin="round"></path>
    <path d="M2.9165 6.66602H17.0832" stroke="#212B36" stroke-width="1.5" stroke-linecap="round" stroke-linejoin="round"></path>
    <path d="M2.0835 10.2027C2.0835 6.57161 2.0835 4.75607 3.12693 3.62803C4.17036 2.5 5.84974 2.5 9.2085 2.5H10.7918C14.1506 2.5 15.83 2.5 16.8734 3.62803C17.9168 4.75607 17.9168 6.57161 17.9168 10.2027V10.6306C17.9168 14.2617 17.9168 16.0773 16.8734 17.2053C15.83 18.3333 14.1506 18.3333 10.7918 18.3333H9.2085C5.84974 18.3333 4.17036 18.3333 3.12693 17.2053C2.0835 16.0773 2.0835 14.2617 2.0835 10.6306V10.2027Z" stroke="#212B36" stroke-width="1.5" stroke-linecap="round" stroke-linejoin="round"></path>
    <path d="M2.5 6.66602H17.5" stroke="#212B36" stroke-width="1.5" stroke-linecap="round" stroke-linejoin="round"></path>
  </symbol>
  <symbol fill="none" xmlns="http://www.w3.org/2000/svg" viewBox="0 0 20 20" id="notepad">
    <path d="M10.4412 1.66602C13.7687 1.66602 15.4325 1.66602 16.4663 2.64233C17.5 3.61864 17.5 5.18999 17.5 8.33268V11.666C17.5 14.8087 17.5 16.3801 16.4663 17.3564C15.4325 18.3327 13.7687 18.3327 10.4412 18.3327H9.55882C6.23126 18.3327 4.56748 18.3327 3.53374 17.3564C2.5 16.3801 2.5 14.8087 2.5 11.666L2.5 8.33268C2.5 5.18998 2.5 3.61864 3.53374 2.64233C4.56748 1.66602 6.23126 1.66602 9.55882 1.66602L10.4412 1.66602Z" stroke="#212B36" stroke-width="1.5" stroke-linecap="round"></path>
    <path d="M6.6665 5.83398H13.3332" stroke="#212B36" stroke-width="1.5" stroke-linecap="round"></path>
    <path d="M6.6665 10H13.3332" stroke="#212B36" stroke-width="1.5" stroke-linecap="round"></path>
    <path d="M6.6665 14.166L9.99984 14.166" stroke="#212B36" stroke-width="1.5" stroke-linecap="round"></path>
  </symbol>
  <symbol fill="none" xmlns="http://www.w3.org/2000/svg" viewBox="0 0 20 20" id="medicine">
    <path d="M16.8275 10.8329C18.2083 13.2243 17.3889 16.2823 14.9974 17.663C12.606 19.0437 9.548 18.2243 8.16729 15.8329M16.8275 10.8329C15.4468 8.4414 12.3889 7.62203 9.99742 9.00274C7.60595 10.3835 6.78658 13.4414 8.16729 15.8329M16.8275 10.8329L8.16729 15.8329" stroke="#212B36" stroke-width="1.5"></path>
    <path d="M8.369 4.61771L12.6065 2.11385C14.1666 1.19195 16.1617 1.73904 17.0624 3.33582C17.7861 4.61864 17.5834 6.18868 16.6667 7.23451M8.369 4.61771L4.13154 7.12157C2.57135 8.04347 2.03679 10.0853 2.93757 11.682C3.47915 12.6421 4.4163 13.2227 5.41667 13.3327M8.369 4.61771L9.58333 6.66602" stroke="#212B36" stroke-width="1.5" stroke-linecap="round" stroke-linejoin="round"></path>
  </symbol>
  <symbol fill="none" xmlns="http://www.w3.org/2000/svg" viewBox="0 0 20 20" id="med-brand">
    <path d="M2.5 9.16602L2.5 12.916C2.5 15.273 2.5 16.4515 3.23223 17.1838C3.96447 17.916 5.14298 17.916 7.5 17.916H12.5C14.857 17.916 16.0355 17.916 16.7678 17.1838C17.5 16.4515 17.5 15.273 17.5 12.916V9.16602" stroke="#212B36" stroke-width="1.5"></path>
    <path d="M6.6421 7.50065L7.36659 7.30671C7.26925 6.9431 6.91748 6.70797 6.54429 6.75706C6.1711 6.80614 5.8921 7.12424 5.8921 7.50065H6.6421ZM1.76107 8.36769L2.46389 8.1059L2.46389 8.1059L1.76107 8.36769ZM18.2386 8.36769L17.5358 8.1059L17.5358 8.1059L18.2386 8.36769ZM13.3576 7.50065H14.1076C14.1076 7.12424 13.8286 6.80614 13.4554 6.75706C13.0822 6.70797 12.7304 6.9431 12.6331 7.30671L13.3576 7.50065ZM2.0479 6.73207L2.6979 7.10622H2.6979L2.0479 6.73207ZM2.85095 5.33694L2.20094 4.96279L2.20094 4.96279L2.85095 5.33694ZM17.9518 6.73207L17.3018 7.10622V7.10622L17.9518 6.73207ZM17.1487 5.33694L17.7987 4.96279L17.7987 4.96279L17.1487 5.33694ZM18.3226 7.69142L17.5751 7.75366V7.75366L18.3226 7.69142ZM1.67712 7.69142L0.929709 7.62919L1.67712 7.69142ZM6.6421 7.50065H5.8921C5.8921 8.462 5.10557 9.25065 4.1238 9.25065V10.0007V10.7507C5.92366 10.7507 7.3921 9.30073 7.3921 7.50065L6.6421 7.50065ZM4.1238 10.0007V9.25065C3.36061 9.25065 2.71225 8.77264 2.46389 8.1059L1.76107 8.36769L1.05824 8.62949C1.52011 9.86944 2.71947 10.7507 4.1238 10.7507V10.0007ZM18.2386 8.36769L17.5358 8.1059C17.2874 8.77264 16.6391 9.25065 15.8759 9.25065V10.0007V10.7507C17.2802 10.7507 18.4796 9.86944 18.9414 8.62949L18.2386 8.36769ZM15.8759 10.0007V9.25065C14.8941 9.25065 14.1076 8.462 14.1076 7.50065H13.3576H12.6076C12.6076 9.30073 14.076 10.7507 15.8759 10.7507V10.0007ZM9.99984 10.0007V9.25065C8.71426 9.25065 7.6612 8.40722 7.36659 7.30671L6.6421 7.50065L5.91761 7.6946C6.39274 9.46947 8.05448 10.7507 9.99984 10.7507V10.0007ZM13.3576 7.50065L12.6331 7.30671C12.3385 8.40722 11.2854 9.25065 9.99984 9.25065V10.0007V10.7507C11.9452 10.7507 13.6069 9.46947 14.0821 7.6946L13.3576 7.50065ZM2.0479 6.73207L2.6979 7.10622L3.50096 5.71109L2.85095 5.33694L2.20094 4.96279L1.39789 6.35792L2.0479 6.73207ZM17.9518 6.73207L18.6018 6.35792L17.7987 4.96279L17.1487 5.33694L16.4987 5.71109L17.3018 7.10622L17.9518 6.73207ZM4.9291 2.08398V2.83398L15.0706 2.83398V2.08398V1.33398L4.9291 1.33398V2.08398ZM16.7153 3.71677H17.4653C17.4653 2.39564 16.388 1.33398 15.0706 1.33398V2.08398V2.83398C15.5699 2.83398 15.9653 3.23437 15.9653 3.71677H16.7153ZM17.1487 5.33694L17.7987 4.96279C17.5801 4.58296 17.4653 4.15349 17.4653 3.71677H16.7153H15.9653C15.9653 4.41663 16.1493 5.10408 16.4987 5.71109L17.1487 5.33694ZM3.28436 3.71677L4.03436 3.71677C4.03436 3.23437 4.42978 2.83398 4.9291 2.83398V2.08398V1.33398C3.61169 1.33398 2.53436 2.39564 2.53436 3.71677L3.28436 3.71677ZM18.2386 8.36769L18.9414 8.62949C18.9767 8.53491 19.033 8.39006 19.0617 8.20703C19.0902 8.02521 19.0875 7.84021 19.07 7.62919L18.3226 7.69142L17.5751 7.75366C17.5883 7.91117 17.5818 7.96172 17.5798 7.97461C17.578 7.98629 17.577 7.99532 17.5358 8.1059L18.2386 8.36769ZM17.9518 6.73207L17.3018 7.10622C17.5315 7.50526 17.5599 7.57055 17.5751 7.75366L18.3226 7.69142L19.07 7.62919C19.0238 7.07525 18.8255 6.74665 18.6018 6.35792L17.9518 6.73207ZM2.85095 5.33694L3.50096 5.71109C3.85036 5.10408 4.03436 4.41663 4.03436 3.71677L3.28436 3.71677L2.53436 3.71677C2.53436 4.15349 2.41957 4.58296 2.20094 4.96279L2.85095 5.33694ZM1.76107 8.36769L2.46389 8.1059C2.4227 7.99532 2.4217 7.98629 2.41987 7.97461C2.41785 7.96172 2.41142 7.91117 2.42454 7.75366L1.67712 7.69142L0.929709 7.62919C0.912137 7.84021 0.90947 8.02521 0.937986 8.20703C0.966693 8.39006 1.02301 8.53491 1.05824 8.62949L1.76107 8.36769ZM2.0479 6.73207L1.39789 6.35792C1.17413 6.74665 0.975836 7.07525 0.929709 7.62919L1.67712 7.69142L2.42454 7.75366C2.43978 7.57055 2.46821 7.50526 2.6979 7.10622L2.0479 6.73207Z" fill="#212B36"></path>
    <path d="M5.8335 15L9.16683 15" stroke="#212B36" stroke-width="1.5" stroke-linecap="round"></path>
  </symbol>
  <symbol fill="none" xmlns="http://www.w3.org/2000/svg" viewBox="0 0 316 211" id="successful-illustration">
    <g clip-path="url(#clip0_31841_8458)">
      <path d="M78.2228 130.479C79.1305 153.547 128.305 196.002 181.905 173.536C206.833 163.087 203.408 149.956 221.289 130.545C231.947 118.976 247.929 109.482 251.153 93.8191C253.94 80.2993 250.151 66.4049 242.324 57.8721C224.719 38.682 191.762 27.5071 163.649 62.9944C135.534 98.4818 75.8883 70.985 78.2228 130.479Z" fill="url(#paint0_linear_31841_8458)"></path>
      <path d="M68.9992 68.2767C73.2996 75.9634 82.7175 77.0195 97.8054 75.559C109.153 74.4583 119.5 73.6065 130.849 67.4095C138.791 63.0752 145.079 57.2111 149.668 51.5155C154.641 45.3452 161.582 38.3034 158.179 31.3074C153.503 21.697 126.462 13.6031 100.204 26.8394C71.3594 41.3837 64.7926 60.764 68.9992 68.2767Z" fill="url(#paint1_linear_31841_8458)"></path>
      <path d="M34.0131 91.3347C45.1609 96.8731 59.9567 89.7515 59.9567 89.7515C59.9567 89.7515 56.6685 73.6533 45.5148 68.1223C34.367 62.5835 19.5771 69.6974 19.5771 69.6974C19.5771 69.6974 22.8653 85.796 34.0131 91.3347Z" fill="url(#paint2_linear_31841_8458)"></path>
      <path d="M283.795 108.59C277.738 112.226 269.049 108.865 269.049 108.865C269.049 108.865 270.185 99.6102 276.246 95.9785C282.302 92.343 290.988 95.6996 290.988 95.6996C290.988 95.6996 289.852 104.954 283.795 108.59Z" fill="url(#paint3_linear_31841_8458)"></path>
      <path d="M61.6565 170.482C63.5475 170.482 65.0805 168.947 65.0805 167.052C65.0805 165.158 63.5475 163.623 61.6565 163.623C59.7654 163.623 58.2324 165.158 58.2324 167.052C58.2324 168.947 59.7654 170.482 61.6565 170.482Z" fill="#DFE3E8"></path>
      <path d="M284.65 146.593C287.381 146.593 289.596 144.375 289.596 141.639C289.596 138.903 287.381 136.686 284.65 136.686C281.918 136.686 279.704 138.903 279.704 141.639C279.704 144.375 281.918 146.593 284.65 146.593Z" fill="#DFE3E8"></path>
      <path d="M44.22 136.917C46.2987 136.917 47.9839 135.229 47.9839 133.147C47.9839 131.065 46.2987 129.377 44.22 129.377C42.1412 129.377 40.4561 131.065 40.4561 133.147C40.4561 135.229 42.1412 136.917 44.22 136.917Z" fill="#DFE3E8"></path>
      <path d="M65.2933 37.4533C67.6045 37.4533 69.4782 35.5767 69.4782 33.2618C69.4782 30.9469 67.6045 29.0703 65.2933 29.0703C62.982 29.0703 61.1084 30.9469 61.1084 33.2618C61.1084 35.5767 62.982 37.4533 65.2933 37.4533Z" fill="#DFE3E8"></path>
      <path d="M294.439 59.7326C294.439 61.8114 296.122 63.4965 298.197 63.4965C300.273 63.4965 301.955 61.8114 301.955 59.7326C301.955 57.6539 300.273 55.9688 298.197 55.9688C296.122 55.9688 294.439 57.6539 294.439 59.7326Z" fill="#DFE3E8"></path>
      <path d="M188.037 28.4945C190.798 28.4945 193.036 26.2528 193.036 23.4875C193.036 20.7222 190.798 18.4805 188.037 18.4805C185.276 18.4805 183.038 20.7222 183.038 23.4875C183.038 26.2528 185.276 28.4945 188.037 28.4945Z" fill="#DFE3E8"></path>
      <path d="M57.9199 115.346C60.0439 115.346 61.7657 113.967 61.7657 112.265C61.7657 110.563 60.0439 109.184 57.9199 109.184C55.796 109.184 54.0742 110.563 54.0742 112.265C54.0742 113.967 55.796 115.346 57.9199 115.346Z" fill="#DFE3E8"></path>
      <path d="M256.2 37.3926H256.145C255.82 41.9962 252.402 42.0669 252.402 42.0669C252.402 42.0669 256.172 42.1408 256.172 47.4601C256.172 42.1408 259.941 42.0669 259.941 42.0669C259.941 42.0669 256.524 41.9962 256.2 37.3926ZM261.926 157.896H261.874C261.562 162.485 258.28 162.556 258.28 162.556C258.28 162.556 261.899 162.63 261.899 167.933C261.899 162.63 265.518 162.556 265.518 162.556C265.518 162.556 262.238 162.485 261.926 157.896Z" fill="#DFE3E8"></path>
      <path d="M157.809 192.18C205.502 192.18 244.165 153.455 244.165 105.686C244.165 57.9177 205.502 19.1934 157.809 19.1934C110.115 19.1934 71.4521 57.9177 71.4521 105.686C71.4521 153.455 110.115 192.18 157.809 192.18Z" fill="#238B6D"></path>
      <mask id="mask0_31841_8458" maskUnits="userSpaceOnUse" x="71" y="19" width="174" height="174">
        <path d="M157.809 192.18C205.502 192.18 244.165 153.455 244.165 105.686C244.165 57.9177 205.502 19.1934 157.809 19.1934C110.115 19.1934 71.4521 57.9177 71.4521 105.686C71.4521 153.455 110.115 192.18 157.809 192.18Z" fill="#666AF6"></path>
      </mask>
      <g mask="url(#mask0_31841_8458)">
        <path d="M203.996 66.8184H112.004C104.248 66.8184 97.96 73.1162 97.96 80.885V180.055C97.96 187.824 104.248 194.122 112.004 194.122H203.996C211.752 194.122 218.04 187.824 218.04 180.055V80.885C218.04 73.1162 211.752 66.8184 203.996 66.8184Z" fill="white"></path>
        <path fill-rule="evenodd" clip-rule="evenodd" d="M126.614 133.814C126.614 132.274 127.859 131.025 129.394 131.025H186.569C188.104 131.025 189.349 132.274 189.349 133.814C189.349 135.354 188.104 136.602 186.569 136.602H129.394C127.859 136.602 126.614 135.354 126.614 133.814ZM126.614 149.35C126.614 147.809 127.859 146.561 129.394 146.561H186.569C188.104 146.561 189.349 147.809 189.349 149.35C189.349 150.89 188.104 152.138 186.569 152.138H129.394C127.859 152.138 126.614 150.89 126.614 149.35ZM135.909 164.933C135.909 163.392 137.154 162.144 138.689 162.144H177.311C178.847 162.144 180.091 163.392 180.091 164.933C180.091 166.473 178.847 167.721 177.311 167.721H138.689C137.154 167.721 135.909 166.473 135.909 164.933Z" fill="#DFE3E8"></path>
        <path d="M153.345 87.0397C152.159 88.2292 150.984 88.7814 149.293 88.7814C147.817 88.7814 145.717 88.4942 144.563 89.6611C143.419 90.8187 143.704 92.9166 143.704 94.3878C143.704 96.0837 143.153 97.2624 141.967 98.4519C139.991 100.434 139.003 101.425 139.003 102.657C139.003 103.888 139.991 104.879 141.967 106.862C143.296 108.194 143.704 109.054 143.704 110.926C143.704 112.406 143.417 114.513 144.581 115.67C145.735 116.818 147.826 116.532 149.293 116.532C151.093 116.532 151.96 116.885 153.245 118.174C154.339 119.272 155.806 121.247 157.537 121.247C159.267 121.247 160.734 119.272 161.828 118.174C163.113 116.885 163.98 116.532 165.78 116.532C167.247 116.532 169.339 116.818 170.493 115.67C171.656 114.513 171.37 112.406 171.37 110.926C171.37 109.054 171.778 108.194 173.106 106.862C175.082 104.879 176.07 103.888 176.07 102.657C176.07 101.425 175.082 100.434 173.106 98.4519C171.778 97.1194 171.37 96.259 171.37 94.3878C171.37 92.9072 171.656 90.8006 170.493 89.6435C169.339 88.4955 167.247 88.7814 165.78 88.7814C164.089 88.7814 162.914 88.2289 161.729 87.0397C159.753 85.0575 158.764 84.0664 157.537 84.0664C156.309 84.0664 155.321 85.0575 153.345 87.0397Z" fill="#238B6D"></path>
        <path d="M161.729 87.0397C159.753 85.0575 158.764 84.0664 157.537 84.0664C156.309 84.0664 155.321 85.0575 153.345 87.0397C152.159 88.2292 150.984 88.7814 149.293 88.7814C147.817 88.7814 145.717 88.4942 144.563 89.6611C143.419 90.8187 143.704 92.9166 143.704 94.3878C143.704 96.0837 143.153 97.2624 141.967 98.4519C139.991 100.434 139.003 101.425 139.003 102.657C139.003 103.888 139.991 104.879 141.967 106.862C143.296 108.194 143.704 109.054 143.704 110.926C143.704 112.406 143.417 114.513 144.581 115.67C145.735 116.818 147.826 116.532 149.293 116.532C151.093 116.532 151.96 116.885 153.245 118.174C154.339 119.272 155.806 121.247 157.537 121.247C159.267 121.247 160.734 119.272 161.828 118.174C163.113 116.885 163.98 116.532 165.78 116.532C167.247 116.532 169.339 116.818 170.493 115.67M173.106 98.4519C175.082 100.434 176.07 101.425 176.07 102.657C176.07 103.888 175.082 104.879 173.106 106.862C171.778 108.194 171.37 109.054 171.37 110.926C171.37 112.406 171.656 114.513 170.493 115.67M170.493 115.67H170.51" stroke="#101828" stroke-linecap="round" stroke-linejoin="round"></path>
        <path d="M150.123 99.5107C150.123 99.5107 154.293 98.9387 157.537 106.375C157.537 106.375 166.912 87.7845 176.07 84.0664" stroke="#101828" stroke-linecap="round" stroke-linejoin="round"></path>
      </g>
    </g>
    <defs>
      <linearGradient id="paint0_linear_31841_8458" x1="144.664" y1="263.015" x2="193.119" y2="-123.524" gradientUnits="userSpaceOnUse">
        <stop stop-color="white"></stop>
        <stop offset="1" stop-color="#EEEEEE"></stop>
      </linearGradient>
      <linearGradient id="paint1_linear_31841_8458" x1="97.9684" y1="118.093" x2="136.412" y2="-54.3853" gradientUnits="userSpaceOnUse">
        <stop stop-color="white"></stop>
        <stop offset="1" stop-color="#EEEEEE"></stop>
      </linearGradient>
      <linearGradient id="paint2_linear_31841_8458" x1="76.8216" y1="108.611" x2="-15.2371" y2="35.9071" gradientUnits="userSpaceOnUse">
        <stop stop-color="white"></stop>
        <stop offset="1" stop-color="#EEEEEE"></stop>
      </linearGradient>
      <linearGradient id="paint3_linear_31841_8458" x1="260.357" y1="120.293" x2="309.163" y2="75.0177" gradientUnits="userSpaceOnUse">
        <stop stop-color="white"></stop>
        <stop offset="1" stop-color="#EEEEEE"></stop>
      </linearGradient>
      <clipPath id="clip0_31841_8458">
        <rect width="316" height="211" fill="white"></rect>
      </clipPath>
    </defs>
  </symbol>
  <symbol fill="none" xmlns="http://www.w3.org/2000/svg" viewBox="0 0 24 24" id="checkmark-badge">
    <path d="M18.9905 19H19M18.9905 19C18.3678 19.6175 17.2393 19.4637 16.4479 19.4637C15.4765 19.4637 15.0087 19.6537 14.3154 20.347C13.7251 20.9374 12.9337 22 12 22C11.0663 22 10.2749 20.9374 9.68457 20.347C8.99128 19.6537 8.52349 19.4637 7.55206 19.4637C6.76068 19.4637 5.63218 19.6175 5.00949 19C4.38181 18.3776 4.53628 17.2444 4.53628 16.4479C4.53628 15.4414 4.31616 14.9786 3.59938 14.2618C2.53314 13.1956 2.00002 12.6624 2 12C2.00001 11.3375 2.53312 10.8044 3.59935 9.73817C4.2392 9.09832 4.53628 8.46428 4.53628 7.55206C4.53628 6.76065 4.38249 5.63214 5 5.00944C5.62243 4.38178 6.7556 4.53626 7.55208 4.53626C8.46427 4.53626 9.09832 4.2392 9.73815 3.59937C10.8044 2.53312 11.3375 2 12 2C12.6625 2 13.1956 2.53312 14.2618 3.59937C14.9015 4.23907 15.5355 4.53626 16.4479 4.53626C17.2393 4.53626 18.3679 4.38247 18.9906 5C19.6182 5.62243 19.4637 6.75559 19.4637 7.55206C19.4637 8.55858 19.6839 9.02137 20.4006 9.73817C21.4669 10.8044 22 11.3375 22 12C22 12.6624 21.4669 13.1956 20.4006 14.2618C19.6838 14.9786 19.4637 15.4414 19.4637 16.4479C19.4637 17.2444 19.6182 18.3776 18.9905 19Z" stroke="#1A7A5E"></path>
    <path d="M9 12.8929C9 12.8929 10.2 13.5447 10.8 14.5C10.8 14.5 12.6 10.75 15 9.5" stroke="#1A7A5E" stroke-width="1.5" stroke-linecap="round" stroke-linejoin="round"></path>
  </symbol>
</svg>




