<svg width="31" height="31" viewBox="0 0 31 31" fill="none" xmlns="http://www.w3.org/2000/svg">
<path d="M26.9914 10.5195C26.9719 10.0117 26.9182 9.52344 26.8303 9.05469C26.7424 8.58594 26.6105 8.12695 26.4348 7.67773L26.4641 7.73633C26.1711 6.97461 25.7414 6.31055 25.175 5.74414C24.6086 5.17773 23.9543 4.74805 23.2121 4.45508H23.1828C22.7727 4.29883 22.3381 4.17188 21.8791 4.07422C21.4201 3.97656 20.9465 3.92773 20.4582 3.92773H20.4289C19.8234 3.88867 19.2814 3.86426 18.8029 3.85449C18.3244 3.84473 17.3234 3.83984 15.8 3.83984C14.2766 3.83984 13.2707 3.84473 12.7824 3.85449C12.2941 3.86426 11.757 3.88867 11.1711 3.92773C10.6633 3.92773 10.1799 3.97656 9.7209 4.07422C9.26192 4.17188 8.81758 4.29883 8.38789 4.45508H8.41719C7.675 4.74805 7.02071 5.17773 6.4543 5.74414C5.88789 6.31055 5.45821 6.96484 5.16524 7.70703L5.13594 7.73633C4.97969 8.14648 4.85762 8.58105 4.76973 9.04004C4.68184 9.49902 4.62813 9.97266 4.6086 10.4609C4.58907 11.0664 4.57442 11.6084 4.56465 12.0869C4.55489 12.5654 4.55 13.5762 4.55 15.1191C4.55 16.6426 4.55 17.6436 4.55 18.1221C4.55 18.6006 4.56953 19.1426 4.6086 19.748C4.62813 20.2168 4.68184 20.6807 4.76973 21.1396C4.85762 21.5986 4.97969 22.043 5.13594 22.4727C5.42891 23.2344 5.8586 23.8984 6.425 24.4648C6.99141 25.0312 7.64571 25.4609 8.38789 25.7539H8.44649C8.83711 25.9297 9.26192 26.0664 9.7209 26.1641C10.1799 26.2617 10.6535 26.3203 11.1418 26.3398H11.1711C11.7766 26.3594 12.3186 26.374 12.7971 26.3838C13.2756 26.3936 14.2766 26.3984 15.8 26.3984C17.3234 26.3984 18.3293 26.3936 18.8176 26.3838C19.3059 26.374 19.843 26.3594 20.4289 26.3398C20.9367 26.3203 21.4201 26.2666 21.8791 26.1787C22.3381 26.0908 22.7922 25.959 23.2414 25.7832L23.1828 25.8125C23.925 25.5 24.5793 25.0654 25.1457 24.5088C25.7121 23.9521 26.1418 23.3027 26.4348 22.5605L26.4641 22.502C26.6203 22.0723 26.7424 21.6279 26.8303 21.1689C26.9182 20.71 26.9719 20.2461 26.9914 19.7773C27.0109 19.1719 27.0256 18.6299 27.0354 18.1514C27.0451 17.6729 27.05 16.6719 27.05 15.1484C27.05 13.625 27.05 12.6191 27.05 12.1309C27.05 11.6426 27.0305 11.1055 26.9914 10.5195ZM15.8 20.8906C14.9992 20.8906 14.2473 20.7344 13.5441 20.4219C12.841 20.1289 12.2258 19.7188 11.6984 19.1914C11.1711 18.6641 10.7609 18.0488 10.468 17.3457C10.1555 16.6426 9.99922 15.8906 9.99922 15.0898C9.99922 14.2891 10.1555 13.5469 10.468 12.8633C10.7609 12.1602 11.1711 11.5449 11.6984 11.0176C12.2258 10.4902 12.841 10.0801 13.5441 9.78711C14.2473 9.47461 14.9992 9.31836 15.8 9.31836C16.6008 9.31836 17.3527 9.47461 18.0559 9.78711C18.7395 10.0801 19.3449 10.4902 19.8723 11.0176C20.3996 11.5449 20.8098 12.1602 21.1027 12.8633C21.4152 13.5469 21.5715 14.2891 21.5715 15.0898C21.5715 15.8906 21.4152 16.6426 21.1027 17.3457C20.8098 18.0488 20.3996 18.6641 19.8723 19.1914C19.3449 19.7188 18.7395 20.1289 18.0559 20.4219C17.3527 20.7344 16.6008 20.8906 15.8 20.8906ZM21.8059 10.4609C21.4348 10.4609 21.1174 10.3291 20.8537 10.0654C20.59 9.80176 20.4582 9.48438 20.4582 9.11328C20.4582 8.74219 20.59 8.4248 20.8537 8.16113C21.1174 7.89746 21.4348 7.76562 21.8059 7.76562C22.177 7.76562 22.4943 7.89746 22.758 8.16113C23.0217 8.4248 23.1535 8.74219 23.1535 9.11328C23.1535 9.48438 23.0217 9.80176 22.758 10.0654C22.4943 10.3291 22.177 10.4609 21.8059 10.4609ZM19.55 15.0898C19.55 16.125 19.1838 17.0088 18.4514 17.7412C17.7189 18.4736 16.8352 18.8398 15.8 18.8398C14.7648 18.8398 13.8811 18.4736 13.1486 17.7412C12.4162 17.0088 12.05 16.125 12.05 15.0898C12.05 14.0547 12.4162 13.1709 13.1486 12.4385C13.8811 11.7061 14.7648 11.3398 15.8 11.3398C16.8352 11.3398 17.7189 11.7061 18.4514 12.4385C19.1838 13.1709 19.55 14.0547 19.55 15.0898Z" fill="#111111"/>
</svg>
