<svg width="31" height="31" viewBox="0 0 31 31" fill="none" xmlns="http://www.w3.org/2000/svg">
<path d="M25.6902 3.86914H5.70978C5.35822 3.86914 5.06036 3.99121 4.81622 4.23535C4.57208 4.47949 4.45001 4.77734 4.45001 5.12891V25.1387C4.45001 25.4707 4.57208 25.7588 4.81622 26.0029C5.06036 26.2471 5.35822 26.3691 5.70978 26.3691H25.6902C26.0418 26.3691 26.3397 26.2471 26.5838 26.0029C26.8279 25.7588 26.95 25.4707 26.95 25.1387V5.12891C26.95 4.77734 26.8279 4.47949 26.5838 4.23535C26.3397 3.99121 26.0418 3.86914 25.6902 3.86914ZM11.1297 23.0586H7.78986V12.3066H11.1297V23.0586ZM9.45978 10.8418C8.9129 10.8418 8.45392 10.6514 8.08282 10.2705C7.71173 9.88965 7.52618 9.43555 7.52618 8.9082C7.52618 8.38086 7.71173 7.92676 8.08282 7.5459C8.45392 7.16504 8.9129 6.97461 9.45978 6.97461C9.98712 6.97461 10.4412 7.16504 10.8221 7.5459C11.2029 7.92676 11.3934 8.38086 11.3934 8.9082C11.3934 9.43555 11.2029 9.88965 10.8221 10.2705C10.4412 10.6514 9.98712 10.8418 9.45978 10.8418ZM23.6102 23.0586H20.2996V17.8145C20.2996 17.1895 20.2215 16.5596 20.0652 15.9248C19.909 15.29 19.4012 14.9727 18.5418 14.9727C17.6824 14.9727 17.1356 15.2607 16.9012 15.8369C16.6668 16.4131 16.5496 17.043 16.5496 17.7266V23.0586H13.2098V12.3066H16.4031V13.7715H16.4617C16.6766 13.3613 17.0526 12.9707 17.5897 12.5996C18.1268 12.2285 18.8055 12.043 19.6258 12.043C21.3055 12.043 22.3895 12.5361 22.8777 13.5225C23.366 14.5088 23.6102 15.7246 23.6102 17.1699V23.0586Z" fill="#111111"/>
</svg>
