<svg width="31" height="31" viewBox="0 0 31 31" fill="none" xmlns="http://www.w3.org/2000/svg">
<path d="M15.6 2.63867C13.8617 2.63867 12.2406 2.96094 10.7367 3.60547C9.21329 4.26953 7.88516 5.16309 6.75235 6.28613C5.61954 7.40918 4.73087 8.73242 4.08633 10.2559C3.42227 11.7793 3.09024 13.4004 3.09024 15.1191C3.09024 16.4277 3.28555 17.6875 3.67618 18.8984C4.0668 20.1094 4.61368 21.2178 5.3168 22.2236C6.01993 23.2295 6.85977 24.123 7.83633 24.9043C8.8129 25.6855 9.87735 26.3008 11.0297 26.75C10.9711 26.2617 10.932 25.6758 10.9125 24.9922C10.893 24.3086 10.9516 23.6934 11.0883 23.1465C11.1469 22.9121 11.2543 22.4531 11.4106 21.7695C11.5668 21.1055 11.7279 20.4121 11.894 19.6895C12.06 18.9668 12.2113 18.332 12.3481 17.7852C12.4848 17.2383 12.5531 16.9648 12.5531 16.9648C12.5531 16.9648 12.4897 16.7939 12.3627 16.4521C12.2357 16.1104 12.1723 15.6562 12.1723 15.0898C12.1723 14.2305 12.392 13.5127 12.8315 12.9365C13.2709 12.3604 13.8031 12.0723 14.4281 12.0723C14.9555 12.0723 15.351 12.2432 15.6147 12.585C15.8783 12.9268 16.0102 13.3418 16.0102 13.8301C16.0102 14.3574 15.8832 14.9971 15.6293 15.749C15.3754 16.501 15.1606 17.248 14.9848 17.9902C14.8285 18.6152 14.9408 19.1475 15.3217 19.5869C15.7025 20.0264 16.2055 20.2461 16.8305 20.2461C17.9438 20.2461 18.8764 19.7139 19.6283 18.6494C20.3803 17.585 20.7563 16.2129 20.7563 14.5332C20.7563 13.0293 20.268 11.8037 19.2914 10.8564C18.3148 9.90918 17.0648 9.43555 15.5414 9.43555C13.7641 9.43555 12.3773 9.99707 11.3813 11.1201C10.3852 12.2432 9.88712 13.4883 9.88712 14.8555C9.88712 15.4023 9.97989 15.9346 10.1654 16.4521C10.351 16.9697 10.5707 17.3848 10.8246 17.6973C10.8637 17.7363 10.8881 17.7803 10.8979 17.8291C10.9076 17.8779 10.9125 17.9219 10.9125 17.9609C10.9125 17.9805 10.9125 18 10.9125 18.0195C10.9125 18.0391 10.9125 18.0586 10.9125 18.0781C10.8734 18.2734 10.81 18.5371 10.7221 18.8691C10.6342 19.2012 10.5805 19.4062 10.5609 19.4844C10.5414 19.6016 10.4975 19.6748 10.4291 19.7041C10.3607 19.7334 10.268 19.7188 10.1508 19.6602C9.36954 19.2891 8.74942 18.6152 8.29044 17.6387C7.83145 16.6621 7.60196 15.7246 7.60196 14.8262C7.60196 13.8301 7.78751 12.8828 8.1586 11.9844C8.51016 11.0664 9.03262 10.2559 9.72598 9.55273C10.4193 8.84961 11.2738 8.29297 12.2895 7.88281C13.3246 7.47266 14.516 7.26758 15.8637 7.26758C16.9574 7.26758 17.9633 7.44336 18.8813 7.79492C19.8188 8.16602 20.6342 8.67383 21.3275 9.31836C22.0209 9.96289 22.5727 10.7246 22.9828 11.6035C23.3734 12.4824 23.5688 13.4395 23.5688 14.4746C23.5688 15.5488 23.4027 16.5547 23.0707 17.4922C22.7582 18.4492 22.3139 19.2744 21.7377 19.9678C21.1615 20.6611 20.4731 21.2129 19.6723 21.623C18.891 22.0332 18.0316 22.2383 17.0941 22.2383C16.4496 22.2383 15.8588 22.0967 15.3217 21.8135C14.7846 21.5303 14.4184 21.1934 14.2231 20.8027L13.432 23.7617C13.2953 24.3086 13.0658 24.8896 12.7436 25.5049C12.4213 26.1201 12.1332 26.6328 11.8793 27.043C12.4457 27.2188 13.0414 27.3555 13.6664 27.4531C14.2914 27.5508 14.9262 27.5996 15.5707 27.5996C15.5707 27.5996 15.5756 27.5996 15.5854 27.5996C15.5951 27.5996 15.6 27.5996 15.6 27.5996C17.3188 27.5996 18.9398 27.2773 20.4633 26.6328C21.9672 25.9688 23.2856 25.0703 24.4184 23.9375C25.5512 22.8047 26.4398 21.4863 27.0844 19.9824C27.7484 18.459 28.0805 16.8379 28.0805 15.1191C28.0805 13.4004 27.7484 11.7793 27.0844 10.2559C26.4398 8.73242 25.5512 7.40918 24.4184 6.28613C23.2856 5.16309 21.9574 4.26953 20.434 3.60547C18.9301 2.96094 17.3188 2.63867 15.6 2.63867Z" fill="#111111"/>
</svg>
