<svg width="109" height="108" viewBox="0 0 109 108" fill="none" xmlns="http://www.w3.org/2000/svg">
<path d="M18.5 15.75C18.5 14.5074 19.5074 13.5 20.75 13.5H43.25C44.4926 13.5 45.5 14.5074 45.5 15.75V38.25C45.5 39.4926 44.4926 40.5 43.25 40.5H20.75C19.5074 40.5 18.5 39.4926 18.5 38.25V15.75Z" fill="#1A7A5E"/>
<path d="M68 65.25C68 64.0074 69.0074 63 70.25 63H92.75C93.9926 63 95 64.0074 95 65.25V87.75C95 88.9926 93.9926 90 92.75 90H70.25C69.0074 90 68 88.9926 68 87.75V65.25Z" fill="#1A7A5E"/>
<path d="M33.577 59.1532C32.706 58.2823 31.294 58.2823 30.423 59.1532L14.6532 74.923C13.7823 75.794 13.7823 77.2061 14.6532 78.077L30.423 93.8468C31.294 94.7177 32.706 94.7177 33.577 93.8468L49.3468 78.077C50.2177 77.2061 50.2177 75.794 49.3468 74.923L33.577 59.1532Z" fill="#1A7A5E"/>
<path d="M83.75 18C83.75 15.5147 81.7353 13.5 79.25 13.5C76.7647 13.5 74.75 15.5147 74.75 18V23.625C74.75 24.2463 74.2463 24.75 73.625 24.75H68C65.5147 24.75 63.5 26.7647 63.5 29.25C63.5 31.7353 65.5147 33.75 68 33.75H73.625C74.2463 33.75 74.75 34.2537 74.75 34.875V40.5C74.75 42.9853 76.7647 45 79.25 45C81.7353 45 83.75 42.9853 83.75 40.5V34.875C83.75 34.2537 84.2537 33.75 84.875 33.75H90.5C92.9853 33.75 95 31.7353 95 29.25C95 26.7647 92.9853 24.75 90.5 24.75H84.875C84.2537 24.75 83.75 24.2463 83.75 23.625V18Z" fill="#1A7A5E"/>
</svg>
