<svg width="31" height="31" viewBox="0 0 31 31" fill="none" xmlns="http://www.w3.org/2000/svg">
<path d="M25.4508 10.1094C25.4508 10.2266 25.4508 10.3389 25.4508 10.4463C25.4508 10.5537 25.4508 10.666 25.4508 10.7832C25.4508 12.4434 25.1383 14.123 24.5133 15.8223C23.8883 17.5215 22.9703 19.0596 21.7594 20.4365C20.5484 21.8135 19.0543 22.9316 17.277 23.791C15.4996 24.6699 13.4488 25.1094 11.1246 25.1094C9.69883 25.1094 8.33164 24.9092 7.02305 24.5088C5.71445 24.1084 4.50352 23.5566 3.39024 22.8535C3.60508 22.873 3.81016 22.8877 4.00547 22.8975C4.20078 22.9072 4.40586 22.9121 4.6207 22.9121C4.6207 22.9121 4.63047 22.9121 4.65 22.9121C5.82188 22.9121 6.94004 22.7168 8.00449 22.3262C9.06895 21.9355 10.0309 21.4082 10.8902 20.7441H10.8609C9.76719 20.7246 8.79551 20.3926 7.9459 19.748C7.09629 19.1035 6.50547 18.2832 6.17344 17.2871V17.2578C6.31016 17.2773 6.46152 17.2969 6.62754 17.3164C6.79356 17.3359 6.95469 17.3457 7.11094 17.3457C7.34531 17.3457 7.56992 17.3311 7.78477 17.3018C7.99961 17.2725 8.21445 17.2285 8.4293 17.1699C7.27695 16.9355 6.31504 16.3594 5.54356 15.4414C4.77207 14.5234 4.38633 13.4492 4.38633 12.2188V12.1602C4.73789 12.3555 5.1041 12.5068 5.48496 12.6143C5.86582 12.7217 6.26133 12.7852 6.67149 12.8047C5.98789 12.3359 5.44102 11.7354 5.03086 11.0029C4.6207 10.2705 4.41563 9.47461 4.41563 8.61523C4.41563 8.14648 4.4791 7.69727 4.60606 7.26758C4.73301 6.83789 4.90391 6.4375 5.11875 6.06641C5.74375 6.82812 6.43711 7.52148 7.19883 8.14648C7.96055 8.77148 8.78086 9.30859 9.65977 9.75781C10.5387 10.207 11.4664 10.5684 12.443 10.8418C13.4195 11.1152 14.4254 11.2812 15.4605 11.3398H15.4898C15.4508 11.1445 15.4215 10.9541 15.402 10.7686C15.3824 10.583 15.3727 10.3926 15.3727 10.1973C15.3727 10.1973 15.3727 10.1924 15.3727 10.1826C15.3727 10.1729 15.3727 10.168 15.3727 10.168C15.3727 8.78125 15.8658 7.59961 16.8521 6.62305C17.8385 5.64648 19.025 5.1582 20.4117 5.1582C21.1344 5.1582 21.8131 5.2998 22.4479 5.58301C23.0826 5.86621 23.6246 6.25195 24.0738 6.74023C24.6793 6.62305 25.2506 6.45703 25.7877 6.24219C26.3248 6.02734 26.8375 5.7832 27.3258 5.50977H27.2672C27.0719 6.11523 26.7887 6.65234 26.4176 7.12109C26.0465 7.58984 25.607 7.98047 25.0992 8.29297H25.0699C25.5973 8.23438 26.11 8.13672 26.608 8C27.1061 7.86328 27.5797 7.69727 28.0289 7.50195L27.9703 7.53125C27.6188 8.03906 27.233 8.50781 26.8131 8.9375C26.3932 9.36719 25.9488 9.75781 25.4801 10.1094H25.4508Z" fill="#111111"/>
</svg>
